<svg id="visual" viewBox="0 0 960 540" width="960" height="540" xmlns="http://www.w3.org/2000/svg" xmlns:xlink="http://www.w3.org/1999/xlink" version="1.1"><path d="M863 540L911 486L853 432L882 378L873 324L873 270L892 216L853 162L911 108L873 54L901 0L960 0L960 54L960 108L960 162L960 216L960 270L960 324L960 378L960 432L960 486L960 540Z" fill="#14003a"></path><path d="M777 540L815 486L805 432L786 378L757 324L767 270L796 216L757 162L748 108L729 54L748 0L902 0L874 54L912 108L854 162L893 216L874 270L874 324L883 378L854 432L912 486L864 540Z" fill="#120040"></path><path d="M642 540L690 486L709 432L671 378L623 324L719 270L671 216L642 162L700 108L604 54L642 0L749 0L730 54L749 108L758 162L797 216L768 270L758 324L787 378L806 432L816 486L778 540Z" fill="#110046"></path><path d="M498 540L604 486L613 432L469 378L527 324L594 270L585 216L575 162L585 108L431 54L537 0L643 0L605 54L701 108L643 162L672 216L720 270L624 324L672 378L710 432L691 486L643 540Z" fill="#100049"></path><path d="M335 540L373 486L287 432L277 378L268 324L373 270L335 216L421 162L431 108L277 54L191 0L538 0L432 54L586 108L576 162L586 216L595 270L528 324L470 378L614 432L605 486L499 540Z" fill="#110046"></path><path d="M57 540L57 486L95 432L95 378L76 324L37 270L47 216L95 162L76 108L37 54L66 0L192 0L278 54L432 108L422 162L336 216L374 270L269 324L278 378L288 432L374 486L336 540Z" fill="#120040"></path><path d="M0 540L0 486L0 432L0 378L0 324L0 270L0 216L0 162L0 108L0 54L0 0L67 0L38 54L77 108L96 162L48 216L38 270L77 324L96 378L96 432L58 486L58 540Z" fill="#14003a"></path></svg>